<?xml version="1.0" encoding="UTF-8"?>
<!DOCTYPE svg PUBLIC "-//W3C//DTD SVG 1.1//EN" "http://www.w3.org/Graphics/SVG/1.1/DTD/svg11.dtd">
<!-- Creator: CorelDRAW X7 -->
<svg xmlns="http://www.w3.org/2000/svg" xml:space="preserve" width="3.17498cm" height="6.87492cm" version="1.1" style="shape-rendering:geometricPrecision; text-rendering:geometricPrecision; image-rendering:optimizeQuality; fill-rule:evenodd; clip-rule:evenodd"
viewBox="0 0 3175 6875"
 xmlns:xlink="http://www.w3.org/1999/xlink">
 <defs>
  <style type="text/css">
   <![CDATA[
    .fil5 {fill:#73F1F1}
    .fil2 {fill:#74ED77}
    .fil6 {fill:#7CB47B}
    .fil8 {fill:#A8F3F0}
    .fil3 {fill:#AEB8FF}
    .fil1 {fill:#B7997E}
    .fil7 {fill:#C0C3C8}
    .fil9 {fill:#CAF5CB}
    .fil4 {fill:#E6BDFD}
    .fil11 {fill:#E9EEF5}
    .fil10 {fill:#F668C6}
    .fil0 {fill:#FA8673}
    .fil12 {fill:#FED6CF}
   ]]>
  </style>
 </defs>
 <g id="Layer_x0020_1">
  <metadata id="CorelCorpID_0Corel-Layer"/>
  <path class="fil0" d="M2826 1148l20 34c12,18 10,12 19,32 61,-35 90,-65 154,-87l-42 -77c-48,14 -115,61 -151,98z"/>
  <path class="fil0" d="M2223 348l80 11 25 -177 -75 0c-21,34 -29,97 -30,166z"/>
  <polygon class="fil1" points="485,755 661,788 659,705 497,671 "/>
  <path class="fil2" d="M166 685l102 142c32,-31 29,-10 57,-50l-97 -140c-26,21 -33,17 -62,48z"/>
  <path class="fil3" d="M1034 584c29,48 80,73 124,112l44 -61c-28,-26 -114,-82 -121,-106 -14,18 -31,33 -47,55z"/>
  <path class="fil4" d="M1785 1050l38 60 148 -68c-18,-31 -21,-44 -45,-66l-141 74z"/>
  <path class="fil5" d="M731 5167c14,29 57,102 78,123 17,-15 5,-1 23,-15 32,-24 11,-4 31,-29l-80 -123c-34,16 -32,18 -52,44z"/>
  <path class="fil6" d="M644 3898c25,-12 19,-10 30,-20 2,-2 10,-8 11,-14 1,-4 3,-5 5,-7 0,-63 2,-16 -17,-36l-118 -23 -25 6 -9 70c68,-13 28,-10 74,-28 -22,17 -14,12 -34,41l27 1 -2 -1c50,-14 32,-20 44,0 10,-23 38,-17 -23,-41 38,7 11,-5 49,25l-12 27z"/>
  <path class="fil5" d="M580 1492l46 148 64 -21c-6,-28 -12,-46 -21,-73 -3,-9 -10,-33 -14,-40l-21 -32 -54 18z"/>
  <path class="fil6" d="M2469 6116c20,8 44,13 51,26 23,-15 28,-13 50,-49 21,-34 9,-30 39,-59 -31,-32 -10,-26 -63,-43 -45,83 -55,75 -77,125z"/>
  <path class="fil5" d="M562 2385l61 -2 13 1 -2 -67 -138 -7c14,140 -12,35 66,75z"/>
  <path class="fil3" d="M2990 2584l-76 -4 -48 -6 -2 62 121 15c5,-10 11,10 16,-39 2,-17 -5,-20 -11,-28z"/>
  <path class="fil6" d="M3057 1139c18,46 29,71 59,106l47 -22c-2,-38 -29,-70 -60,-112l-46 28z"/>
  <path class="fil5" d="M530 1244l57 29c30,-56 51,-60 56,-87 1,-2 0,-7 0,-9l-20 -28c-38,10 -72,52 -93,95z"/>
  <path class="fil5" d="M2782 3604l84 100c27,-33 20,-11 40,-47l-86 -94c5,18 -19,26 -38,41z"/>
  <path class="fil7" d="M1790 4970c49,-3 37,37 57,-105 -21,-21 -13,-17 -47,-16 -7,16 -14,30 -18,48 -30,113 -8,46 8,73z"/>
  <path class="fil0" d="M2968 4364c19,33 47,78 82,93l27 -23c-18,-44 -42,-83 -79,-105l-30 35z"/>
  <path class="fil6" d="M1956 1674c19,13 -18,28 65,9 19,-5 44,-14 56,-18l-18 -50c-44,1 -119,7 -103,59z"/>
  <path class="fil0" d="M2677 3039c-3,30 -39,48 109,64l9 -57c-30,-3 -29,-5 -57,-11 -55,-10 -42,-4 -61,4z"/>
  <path class="fil0" d="M2922 2054l50 26 48 -103 -39 -20c-40,15 -49,58 -59,97z"/>
  <path class="fil6" d="M307 712c45,25 23,28 74,-7 44,-31 42,-26 19,-74 -48,10 -86,27 -93,81z"/>
  <path class="fil0" d="M2526 177l44 38c31,21 19,16 51,27l25 -38c-20,-26 -26,-30 -58,-47 -50,-28 -41,-24 -62,20z"/>
  <path class="fil6" d="M865 5578c-22,-6 30,-23 -31,-3 -85,29 -70,150 20,62 30,-30 37,-26 11,-59z"/>
  <polygon class="fil5" points="1280,328 1285,288 1270,213 1215,234 1232,339 "/>
  <path class="fil8" d="M1802 3869l2 -27 32 -20 -32 20c-6,7 -27,-27 -2,27l16 105 57 -11 -5 -66c-20,-12 -14,-5 -31,-11 -2,-1 -6,-1 -8,-2l-29 -15zm71 5l-18 -50c-14,51 21,27 -33,36 18,24 10,2 51,14z"/>
  <path class="fil1" d="M1285 288l-5 40c-7,73 -7,20 17,40 55,-2 46,-56 47,-111 -52,2 -44,-18 -59,31z"/>
  <path class="fil6" d="M3060 833c12,19 1,8 18,24l82 43 15 -41c-22,-31 -61,-50 -98,-65l-17 39z"/>
  <path class="fil9" d="M656 4922l43 11c8,-13 22,-37 26,-59 10,-78 5,-37 -26,-53 0,1 -44,-12 -43,101z"/>
  <path class="fil10" d="M316 3525c12,36 0,17 28,41 15,13 27,20 45,30 61,-54 6,-86 -57,-101 -20,56 2,-20 -16,30z"/>
  <path class="fil0" d="M770 5745c-48,117 -14,82 -5,97 47,-8 24,20 46,-39 13,-32 14,-66 -11,-65 -19,1 -20,3 -30,7z"/>
  <path class="fil5" d="M0 3223l29 39c23,-11 70,-48 89,-64l-36 -40 -82 65z"/>
  <polygon class="fil0" points="1718,840 1767,837 1775,791 1774,728 1723,736 "/>
  <path class="fil11" d="M1542 2042c4,42 14,37 37,64 39,-18 86,-55 90,-102 -47,6 -24,9 -55,33 -47,36 -13,13 -72,5z"/>
  <path class="fil5" d="M363 3793l21 8c1,0 51,-8 46,-80 0,-2 -2,-7 -2,-8 -1,-2 -3,-6 -4,-9 -45,-13 -27,-11 -46,24 -18,34 -17,37 -15,65z"/>
  <polygon class="fil4" points="206,2819 306,2858 323,2813 220,2777 "/>
  <path class="fil0" d="M238 1962c10,65 29,41 105,37 -6,-69 -46,-58 -105,-37z"/>
  <path class="fil1" d="M3058 1660c24,-12 22,-1 52,-59 20,-39 20,-29 -20,-48 -5,6 -11,13 -19,24 -45,67 -29,60 -13,83z"/>
  <path class="fil0" d="M1463 6443l41 23c31,-26 47,-43 47,-75 -49,-31 -59,7 -88,52z"/>
  <path class="fil0" d="M2882 2293c-30,60 34,98 59,86 48,-23 -40,-77 -59,-86z"/>
  <polygon class="fil0" points="2403,2951 2441,2963 2498,2882 2459,2864 "/>
  <path class="fil4" d="M260 5067l36 -17c-4,-11 -9,-27 -15,-44l-30 -47c-33,31 -38,-20 9,108z"/>
  <path class="fil10" d="M192 4482c-56,-17 -47,-7 -64,2 -3,19 -22,-5 3,19 24,23 16,5 18,6 14,9 -13,-9 6,10 26,27 1,7 30,20l33 2 -3 -46c-32,12 -21,4 -23,24 -19,-29 -18,2 0,-37z"/>
  <path class="fil4" d="M2914 2580l76 4c-25,-43 -23,-67 -63,-62 -38,32 -29,-14 -13,58z"/>
  <path class="fil5" d="M1804 3842l-2 27 29 15c2,1 6,1 8,2 17,6 11,-1 31,11l3 -23c-41,-12 -33,10 -51,-14 54,-9 19,15 33,-36l-19 -2 -32 20z"/>
  <path class="fil7" d="M586 3887l2 1 -2 -1 58 11 36 2 10 -43c-2,2 -4,3 -5,7 -1,6 -9,12 -11,14 -11,10 -5,8 -30,20l12 -27c-38,-30 -11,-18 -49,-25 61,24 33,18 23,41 -12,-20 6,-14 -44,0zm-65 -13l9 -70 25 -6c-58,-28 -16,-5 -25,6l-9 70 40 13c20,-29 12,-24 34,-41 -46,18 -6,15 -74,28z"/>
  <path class="fil12" d="M1718 840l49 -3 8 -46 -8 46 -49 3 5 -104c-2,4 -16,31 -18,45 -15,96 1,45 13,59z"/>
  <path class="fil12" d="M215 4495l3 46 -33 -2 33 2c27,-39 12,-34 -3,-46l-23 -13c-18,39 -19,8 0,37 2,-20 -9,-12 23,-24z"/>
  <path class="fil8" d="M562 2385c-78,-40 -52,65 -66,-75l138 7 2 67 -13 -1 13 1 -2 -67 -142 -13 4 71 66 10z"/>
  <path class="fil3" d="M2142 2381l-76 -5 -48 -6 -3 62 121 15c6,-9 12,10 17,-38 2,-18 -5,-21 -11,-28z"/>
  <path class="fil0" d="M1462 2342l50 25 48 -102 -39 -21c-41,16 -49,59 -59,98z"/>
  <path class="fil1" d="M1598 1947c23,-12 22,0 52,-59 20,-39 20,-28 -21,-47 -4,6 -10,12 -18,23 -45,67 -29,61 -13,83z"/>
  <path class="fil0" d="M2034 2089c-30,60 34,98 59,86 48,-23 -40,-77 -59,-86z"/>
  <path class="fil4" d="M2066 2376l76 5c-26,-44 -23,-67 -64,-63 -37,32 -28,-14 -12,58z"/>
 </g>
</svg>
