<?xml version="1.0" encoding="UTF-8"?>
<!DOCTYPE svg PUBLIC "-//W3C//DTD SVG 1.1//EN" "http://www.w3.org/Graphics/SVG/1.1/DTD/svg11.dtd">
<!-- Creator: CorelDRAW X7 -->
<svg xmlns="http://www.w3.org/2000/svg" xml:space="preserve" width="5.07998cm" height="5.07998cm" version="1.1" style="shape-rendering:geometricPrecision; text-rendering:geometricPrecision; image-rendering:optimizeQuality; fill-rule:evenodd; clip-rule:evenodd"
viewBox="0 0 5080 5080"
 xmlns:xlink="http://www.w3.org/1999/xlink">
 <defs>
  <style type="text/css">
   <![CDATA[
    .fil3 {fill:#003333}
    .fil4 {fill:#184040}
    .fil10 {fill:#184040}
    .fil9 {fill:#336666}
    .fil0 {fill:#61DAFB}
    .fil7 {fill:#003333;fill-rule:nonzero}
    .fil6 {fill:#184040;fill-rule:nonzero}
    .fil8 {fill:#336666;fill-rule:nonzero}
    .fil5 {fill:#6666FF;fill-rule:nonzero}
    .fil2 {fill:#003333}
    .fil1 {fill:#336666}
   ]]>
  </style>
 </defs>
 <g id="Layer_x0020_1">
  <metadata id="CorelCorpID_0Corel-Layer"/>
  <rect class="fil0" width="5080" height="5080"/>
  <polygon class="fil1" points="1252,1796 2540,1053 3828,1796 2540,2540 2540,4027 1252,3284 "/>
  <polygon class="fil2" points="4335,1504 2540,467 745,1504 745,3576 2540,4613 4335,3576 3976,3369 2540,4198 1104,3369 1104,1711 2540,882 3976,1711 "/>
  <polygon class="fil3" points="2799,3778 2799,2716 3720,2184 4640,2716 4640,3778 3720,4310 "/>
  <polygon class="fil4" points="4640,3778 4640,2716 3720,2184 2799,2716 3720,3247 3720,4310 "/>
  <polygon class="fil5" points="961,4841 961,4841 885,4841 885,4841 "/>
  <polygon class="fil6" points="921,4717 921,4467 991,4467 991,4841 "/>
  <polygon class="fil7" points="666,4840 666,4467 740,4467 740,4467 666,4467 736,4595 736,4840 "/>
  <path class="fil7" d="M624 4826l-82 0 -32 -85 0 0 32 85 82 0 0 0zm-264 -85l-31 85 -80 0 145 -374 80 0 33 83 -33 -83 -80 0 40 87 52 139 -179 -1 53 64 0 0z"/>
  <polygon class="fil8" points="484,4676 433,4538 382,4676 "/>
  <polygon class="fil9" points="976,4840 900,4840 749,4595 679,4467 752,4467 906,4717 "/>
  <polygon class="fil10" points="504,4467 424,4467 463,4554 515,4692 336,4692 390,4755 540,4755 572,4840 653,4840 "/>
  <path class="fil7" d="M1297 4839c77,0 136,-59 136,-137 0,-78 -59,-137 -136,-137 -77,0 -137,59 -137,137 0,78 60,137 137,137zm0 -24c-63,0 -113,-49 -113,-113 0,-65 50,-113 113,-113 63,0 112,48 112,113 0,64 -49,113 -112,113zm65 -138c-4,-26 -27,-48 -62,-48 -42,0 -68,28 -68,73 0,45 26,73 68,73 35,0 58,-20 62,-48l-24 0c-4,17 -19,26 -38,26 -27,0 -44,-19 -44,-51 0,-32 17,-51 44,-51 21,0 34,12 38,26l24 0z"/>
  <path id="1" class="fil7" d="M1547 4633l0 0 30 0 0 0c0,-28 22,-49 51,-49 27,0 49,19 49,43 0,21 -8,34 -41,69l-88 92 0 22 164 0 0 -28 -121 0 0 0 63 -65c42,-43 54,-64 54,-92 0,-38 -35,-68 -79,-68 -47,0 -82,32 -82,76z"/>
  <path id="2" class="fil7" d="M1835 4814c58,0 91,-50 91,-129 0,-78 -33,-128 -91,-128 -58,0 -92,50 -92,128 0,79 34,129 92,129zm0 -27c-39,0 -60,-40 -60,-102 0,-60 22,-101 60,-101 39,0 60,40 60,101 0,62 -21,102 -60,102z"/>
  <path id="3" class="fil7" d="M1957 4633l0 0 30 0 0 0c0,-28 22,-49 51,-49 28,0 50,19 50,43 0,21 -8,34 -42,69l-87 92 0 22 164 0 0 -28 -121 0 0 0 63 -65c41,-43 54,-64 54,-92 0,-38 -35,-68 -80,-68 -47,0 -82,32 -82,76z"/>
  <path id="4" class="fil7" d="M2245 4814c58,0 92,-50 92,-129 0,-78 -34,-128 -92,-128 -57,0 -91,50 -91,128 0,79 33,129 91,129zm0 -27c-38,0 -60,-40 -60,-102 0,-60 22,-101 60,-101 39,0 61,40 61,101 0,62 -22,102 -61,102z"/>
 </g>
</svg>
