<?xml version="1.0" encoding="UTF-8"?>
<!DOCTYPE svg PUBLIC "-//W3C//DTD SVG 1.1//EN" "http://www.w3.org/Graphics/SVG/1.1/DTD/svg11.dtd">
<!-- Creator: CorelDRAW X7 -->
<svg xmlns="http://www.w3.org/2000/svg" xml:space="preserve" width="8.46666cm" height="8.46666cm" version="1.1" style="shape-rendering:geometricPrecision; text-rendering:geometricPrecision; image-rendering:optimizeQuality; fill-rule:evenodd; clip-rule:evenodd"
viewBox="0 0 8467 8467"
 xmlns:xlink="http://www.w3.org/1999/xlink">
 <defs>
  <style type="text/css">
   <![CDATA[
    .str1 {stroke:#C8D5FD;stroke-width:72.57;stroke-opacity:0.501961}
    .str0 {stroke:#C8D5FD;stroke-width:80.57}
    .fil12 {fill:none}
    .fil9 {fill:#122144}
    .fil7 {fill:#1A45D7}
    .fil11 {fill:#486BE0}
    .fil6 {fill:#597BE8}
    .fil15 {fill:#ACC1FF}
    .fil0 {fill:#C8D5FD}
    .fil5 {fill:#D1D7FB}
    .fil8 {fill:#F4875E}
    .fil1 {fill:white}
    .fil4 {fill:white;fill-opacity:0.329412}
    .fil3 {fill:#486BE0;fill-opacity:0.478431}
    .fil13 {fill:#D1D7FB;fill-opacity:0.501961}
    .fil10 {fill:#CA8165;fill-opacity:0.541176}
    .fil2 {fill:white;fill-opacity:0.831373}
    .fil14 {fill:#E7ECFF;fill-opacity:0.941176}
   ]]>
  </style>
   <clipPath id="id0">
    <path d="M4233 0c2338,0 4234,1895 4234,4233 0,2338 -1896,4234 -4234,4234 -2338,0 -4233,-1896 -4233,-4234 0,-2338 1895,-4233 4233,-4233z"/>
   </clipPath>
 </defs>
 <g id="Layer_x0020_1">
  <metadata id="CorelCorpID_0Corel-Layer"/>
  <path class="fil0" d="M4233 0c2338,0 4234,1895 4234,4233 0,2338 -1896,4234 -4234,4234 -2338,0 -4233,-1896 -4233,-4234 0,-2338 1895,-4233 4233,-4233z"/>
  <g style="clip-path:url(#id0)">
   <g id="_1649129430064">
    <rect class="fil1" x="6504" y="656" width="1967" height="4272"/>
    <path class="fil2" d="M2106 1901l3487 0 116 1734 162 161 0 1139c-41,91 -121,173 -121,272 0,79 80,135 121,202l0 645 -121 121 0 806c124,355 247,721 368,1103 507,-307 988,-637 1363,-1059 423,-477 789,-1199 933,-1936l-1898 -3 -202 0 0 -3185 -2 -1901 -2079 0 -2125 0 -2 1901z"/>
    <path class="fil3" d="M6118 8084c-1311,577 -2556,538 -3746,-13l3177 -1147 569 1160z"/>
    <path class="fil4" d="M351 2543l5237 84 0 3972c0,656 -652,2071 -1343,1813l-1085 -404c-805,-37 -1421,-301 -1901,-762l-1242 10 -17 -2996 25 -441c47,-416 129,-917 326,-1276z"/>
    <rect class="fil1" x="952" y="5974" width="4193" height="954" rx="503" ry="168"/>
    <rect class="fil1" x="952" y="2991" width="4193" height="2768" rx="503" ry="489"/>
    <path class="fil5" d="M2766 5127l-322 -484c147,-94 282,-351 443,-282l215 92c177,76 888,458 1011,633 75,108 306,220 225,323l-282 363 -161 -242 -645 887 -968 -645 484 -645z"/>
    <polygon class="fil6" points="589,1901 423,2484 4137,2466 4137,1901 "/>
    <polygon class="fil7" points="1872,7778 1250,7259 2282,5772 3250,6417 3139,8364 2372,8071 2524,6981 "/>
    <path class="fil8" d="M2605 4885l-807 322c-282,-40 -268,-376 -403,-564 -127,-155 -288,-326 -242,-403 41,-81 351,241 484,403 114,139 233,431 377,322l430 -322 161 242z"/>
    <path class="fil8" d="M4197 5590l141 -181 283 323 121 -766c27,-121 -40,-393 80,-363 133,33 54,269 81,403 0,403 -40,847 -202,1048l-504 -464z"/>
    <path class="fil9" d="M3555 3809c-81,226 -51,396 -63,592 285,250 585,476 967,565l76 -1059c17,-229 -221,-474 -479,-473 -219,0 -432,183 -501,375z"/>
    <path class="fil8" d="M3492 4845c-144,-88 -244,-256 -350,-368 132,45 258,61 390,45 40,-81 78,-117 106,-202 13,-38 55,-120 15,-161 -91,-200 -22,-217 121,-201l564 -242c22,207 14,456 -80,645 -40,80 -336,128 -444,121l-80 161c92,170 241,306 343,402 -173,-59 -441,-113 -585,-200z"/>
    <path class="fil10" d="M3935 4280c5,-52 24,-151 41,-161 12,-4 130,106 121,121 -7,26 -108,36 -162,40z"/>
    <rect class="fil7" x="2766" y="2143" width="887" height="161"/>
    <rect class="fil7" x="2444" y="2143" width="202" height="161"/>
    <path class="fil11" d="M4701 1498l2339 0c266,0 484,218 484,484l0 645c0,266 -218,484 -484,484l-1866 0 -311 403 -116 -288c-99,-247 -529,-115 -529,-599l0 -645c0,-266 217,-484 483,-484z"/>
    <rect class="fil0" x="4540" y="1861" width="2661" height="161" rx="161" ry="108"/>
    <rect class="fil0" x="5422" y="2264" width="1780" height="161" rx="108" ry="107"/>
    <rect class="fil0" x="4500" y="2264" width="650" height="161" rx="39" ry="107"/>
    <rect class="fil0" x="4540" y="2627" width="2056" height="161" rx="125" ry="107"/>
    <circle class="fil12 str0" cx="1637" cy="3554" r="403"/>
    <circle class="fil0" cx="1657" cy="3494" r="141"/>
    <path class="fil0" d="M1944 3816c-96,82 -205,145 -307,142 -109,-4 -243,-82 -325,-165l345 -158 287 181z"/>
    <path class="fil13 str1" d="M7568 6920c-122,169 -448,-100 -528,-342l774 -1 -246 343z"/>
    <path class="fil14" d="M6623 7760l-341 239c-52,-84 -179,-428 -170,-413l363 -40 148 214z"/>
    <path class="fil15" d="M2766 5127l-322 -484c147,-94 282,-351 443,-282l215 92c177,76 134,449 309,553 176,104 579,-96 702,80 75,108 306,220 225,323l-282 363 -161 -242 -645 887 -968 -645 484 -645z"/>
   </g>
  </g>
  <path class="fil12" d="M4233 0c2338,0 4234,1895 4234,4233 0,2338 -1896,4234 -4234,4234 -2338,0 -4233,-1896 -4233,-4234 0,-2338 1895,-4233 4233,-4233z"/>
 </g>
</svg>
