<?xml version="1.0" encoding="UTF-8"?>
<!DOCTYPE svg PUBLIC "-//W3C//DTD SVG 1.1//EN" "http://www.w3.org/Graphics/SVG/1.1/DTD/svg11.dtd">
<!-- Creator: CorelDRAW X7 -->
<svg xmlns="http://www.w3.org/2000/svg" xml:space="preserve" width="154.263mm" height="154.263mm" version="1.1" style="shape-rendering:geometricPrecision; text-rendering:geometricPrecision; image-rendering:optimizeQuality; fill-rule:evenodd; clip-rule:evenodd"
viewBox="0 0 15426 15426"
 xmlns:xlink="http://www.w3.org/1999/xlink">
 <defs>
  <style type="text/css">
   <![CDATA[
    .fil0 {fill:none}
    .fil1 {fill:#313C4E;fill-rule:nonzero;fill-opacity:0.850980}
   ]]>
  </style>
 </defs>
 <g id="Layer_x0020_1">
  <metadata id="CorelCorpID_0Corel-Layer"/>
  <rect class="fil0" width="15426" height="15426"/>
  <g>
   <path class="fil1" d="M2790 13275l-605 -471 765 -599 605 471 -382 722 -383 -123zm765 -599c212,165 213,432 2,598 -212,165 -555,165 -767,1l765 -599zm8699 722l-9081 0 0 -845 9081 0 382 722 -382 123zm0 -845c299,0 541,189 541,422 0,234 -242,423 -541,423l0 -845zm988 251l-606 471 -765 -599 606 -471 924 299 -159 300zm-765 -599c212,-165 555,-164 766,1 211,165 211,433 -1,598l-765 -599zm-1434 -3045l0 -845 383 123 203 157 188 146 174 135 161 125 149 117 137 110 126 103 117 99 108 96 99 94 91 93 83 94 75 96 68 98 58 101 48 104 40 105 30 106 22 108 16 110 10 112 5 116 1 120 -1 126 -3 134 -5 143 -5 154 -6 165 -5 177 -5 192 -3 207 -1 223 -1084 0 2 -230 3 -213 4 -196 6 -182 6 -166 5 -153 5 -139 3 -127 1 -114 -2 -103 -4 -91 -7 -81 -10 -71 -13 -62 -15 -56 -19 -50 -23 -49 -27 -48 -35 -50 -42 -54 -53 -59 -63 -65 -76 -71 -88 -79 -102 -86 -115 -95 -130 -103 -143 -113 -158 -123 -174 -134 -188 -146 -205 -158 383 123zm-383 -123c-211,-165 -212,-433 -1,-598 212,-165 555,-166 767,-1l-766 599zm-5894 0l-765 -599 382 -123 208 0 208 0 209 0 208 0 208 0 208 0 208 0 208 0 208 0 208 0 209 0 208 0 208 0 208 0 208 0 208 0 208 0 208 0 208 0 209 0 208 0 208 0 208 0 208 0 208 0 208 0 208 0 209 0 208 0 208 0 208 0 208 0 0 845 -208 0 -208 0 -208 0 -208 0 -209 0 -208 0 -208 0 -208 0 -208 0 -208 0 -208 0 -208 0 -209 0 -208 0 -208 0 -208 0 -208 0 -208 0 -208 0 -208 0 -208 0 -209 0 -208 0 -208 0 -208 0 -208 0 -208 0 -208 0 -208 0 -209 0 -208 0 -208 0 383 -123zm-383 123c-299,0 -542,-189 -542,-423 0,-233 243,-422 542,-422l0 845zm-1433 3045l-765 599 -160 -300 -1 -223 -3 -207 -5 -192 -5 -177 -6 -165 -5 -154 -5 -143 -3 -134 -1 -126 1 -120 6 -116 9 -112 16 -110 22 -108 31 -106 39 -105 49 -104 58 -101 67 -98 75 -96 84 -94 91 -93 99 -94 107 -96 117 -99 126 -103 138 -110 148 -117 161 -125 175 -135 188 -146 203 -157 765 599 -204 158 -189 146 -173 134 -159 123 -143 113 -130 103 -115 95 -102 86 -88 79 -76 71 -63 65 -53 59 -42 54 -34 50 -28 48 -23 49 -18 50 -16 56 -13 62 -10 71 -7 81 -4 91 -1 103 1 114 3 127 4 139 6 153 5 166 6 182 5 196 3 213 1 230 -159 -299zm159 299c0,234 -243,423 -542,423 -299,0 -542,-189 -542,-423l1084 0zm7852 -7424l-1083 0 0 0 -3 -118 -10 -116 -15 -115 -20 -112 -26 -110 -32 -108 -37 -106 -41 -102 -47 -100 -51 -97 -55 -94 -60 -90 -64 -87 -67 -84 -71 -79 -75 -76 -77 -72 -81 -68 -83 -63 -86 -59 -88 -55 -89 -50 -92 -46 -94 -41 -95 -37 -97 -32 -98 -27 -99 -22 -101 -17 -102 -13 -104 -8 -105 -2 0 -846 173 5 172 12 168 21 166 29 163 36 159 44 154 51 151 58 146 64 142 70 136 77 132 82 127 87 121 93 116 97 110 102 105 107 99 111 93 116 88 119 81 123 75 126 68 130 62 133 55 136 49 139 41 142 34 144 27 146 20 149 11 151 4 152 0 0zm-3248 3052l0 -846 0 0 105 -2 104 -8 102 -13 101 -17 99 -22 98 -27 97 -32 95 -37 94 -41 92 -45 89 -51 88 -54 86 -60 83 -63 81 -68 77 -72 75 -76 71 -79 67 -84 64 -87 60 -90 55 -94 51 -97 47 -100 41 -102 37 -106 32 -107 26 -111 20 -112 15 -114 10 -117 3 -118 1083 0 -4 152 -11 151 -20 149 -27 146 -34 144 -41 142 -49 139 -55 136 -62 133 -68 130 -75 126 -81 123 -88 119 -93 116 -99 111 -105 107 -110 102 -116 97 -121 93 -127 87 -132 82 -136 77 -142 70 -146 64 -151 58 -154 51 -159 44 -163 36 -166 29 -168 21 -172 12 -173 5 0 0zm-3248 -3052l1084 0 0 0 3 118 9 117 15 114 21 112 26 111 31 107 37 106 42 102 46 100 51 97 56 94 59 90 64 87 68 84 71 79 74 76 78 72 80 68 83 63 86 60 88 54 90 51 92 45 93 41 95 37 97 32 98 27 99 22 101 17 102 13 104 8 105 2 0 846 -173 -5 -171 -12 -169 -21 -166 -29 -162 -36 -159 -44 -155 -51 -151 -58 -146 -64 -141 -70 -137 -77 -132 -82 -126 -87 -122 -93 -116 -97 -110 -102 -105 -107 -99 -111 -93 -116 -87 -119 -81 -123 -75 -126 -69 -130 -62 -133 -55 -136 -48 -139 -42 -142 -34 -144 -27 -146 -19 -149 -12 -151 -4 -152 0 0zm3248 -3052l0 846 0 0 -105 2 -104 8 -102 13 -101 17 -99 22 -98 27 -97 32 -95 37 -93 41 -92 46 -90 50 -88 55 -86 59 -83 63 -80 68 -78 72 -74 76 -71 79 -68 84 -64 87 -59 90 -56 94 -51 97 -46 100 -42 102 -37 106 -31 108 -26 110 -21 112 -15 115 -9 116 -3 118 -1084 0 4 -152 12 -151 19 -149 27 -146 34 -144 42 -142 48 -139 55 -136 62 -133 69 -130 75 -126 81 -123 87 -119 93 -116 99 -111 105 -107 110 -102 116 -97 122 -93 126 -87 132 -82 137 -77 141 -70 146 -64 151 -58 155 -51 159 -44 162 -36 166 -29 169 -21 171 -12 173 -5 0 0z"/>
  </g>
 </g>
</svg>
