<?xml version="1.0" encoding="UTF-8"?>
<!DOCTYPE svg PUBLIC "-//W3C//DTD SVG 1.1//EN" "http://www.w3.org/Graphics/SVG/1.1/DTD/svg11.dtd">
<!-- Creator: CorelDRAW X7 -->
<svg xmlns="http://www.w3.org/2000/svg" xml:space="preserve" width="154.263mm" height="154.263mm" version="1.1" style="shape-rendering:geometricPrecision; text-rendering:geometricPrecision; image-rendering:optimizeQuality; fill-rule:evenodd; clip-rule:evenodd"
viewBox="0 0 15426 15426"
 xmlns:xlink="http://www.w3.org/1999/xlink">
 <defs>
  <style type="text/css">
   <![CDATA[
    .fil0 {fill:none}
    .fil1 {fill:#777777;fill-rule:nonzero}
    .fil2 {fill:#777777;fill-rule:nonzero}
   ]]>
  </style>
 </defs>
 <g id="Layer_x0020_1">
  <metadata id="CorelCorpID_0Corel-Layer"/>
  <rect class="fil0" width="15426" height="15426"/>
  <g id="_2388042213664">
   <g>
    <path class="fil1" d="M2308 2868c-227,-57 -365,-286 -308,-513 57,-227 287,-365 513,-308l-205 821zm1276 319l-1276 -319 205 -821 1276 318 306 301 -511 521zm205 -822c227,57 365,287 308,514 -57,227 -287,365 -513,308l205 -822zm1322 7299l-1833 -6777 817 -221 1834 6777 -409 533 -409 -312zm818 -221c61,225 -73,458 -298,519 -226,61 -459,-73 -520,-298l818 -221zm5331 533l-5740 0 0 -846 5740 0 387 595 -387 251zm0 -846c234,0 424,189 424,423 0,234 -190,423 -424,423l0 -846zm-1024 1686l638 -1435 773 344 -638 1435 -386 252 -387 -596zm773 344c-95,214 -345,310 -558,215 -214,-95 -310,-345 -215,-559l773 344zm-5329 -595l4943 0 0 847 -4943 0 0 -847zm0 847c-234,0 -424,-190 -424,-424 0,-234 190,-423 424,-423l0 847z"/>
   </g>
   <g>
    <path class="fil1" d="M4204 5111c-234,0 -424,-189 -424,-423 0,-234 190,-424 424,-424l0 847zm8810 2l-8810 -2 0 -847 8810 2 0 847zm0 -847c234,0 424,190 424,424 0,234 -190,423 -424,423l0 -847z"/>
   </g>
   <g>
    <path class="fil1" d="M12377 5941c234,0 423,189 423,423 0,234 -190,423 -424,423l1 -846zm-7721 -5l7721 5 -1 846 -7720 -4 0 -847zm0 847c-234,0 -423,-190 -423,-423 0,-234 190,-424 423,-424l0 847z"/>
   </g>
   <g>
    <path class="fil1" d="M7219 12503l-847 0 0 0 0 -3 0 -3 0 -3 -1 -3 0 -2 -1 -3 -1 -2 -1 -3 -1 -2 -1 -2 -1 -2 -2 -3 -2 -2 -1 -2 -2 -2 -2 -2 -2 -2 -2 -2 -2 -2 -2 -1 -2 -1 -3 -2 -2 -1 -2 -1 -3 -1 -2 -1 -3 -1 -2 0 -3 -1 -3 0 -2 0 -4 0 0 -847 46 1 46 4 45 5 44 8 44 11 43 12 42 14 41 16 40 18 39 20 38 22 37 23 35 26 34 26 33 28 31 30 30 31 28 33 27 34 25 35 23 37 22 38 20 39 18 40 16 41 14 42 13 43 10 44 8 44 5 45 4 46 1 46 0 0zm-902 902l0 -847 0 0 4 0 2 0 3 -1 3 0 2 -1 3 0 2 -1 3 -1 2 -1 2 -1 3 -2 2 -1 2 -2 2 -1 2 -2 2 -2 2 -2 2 -2 1 -2 2 -2 2 -3 1 -2 1 -2 1 -3 1 -2 1 -2 1 -3 0 -2 1 -3 0 -3 0 -3 0 -3 847 0 -1 46 -4 46 -5 45 -8 44 -10 44 -13 43 -14 42 -16 41 -18 40 -20 39 -22 38 -23 36 -25 36 -27 34 -28 32 -30 32 -31 29 -33 29 -34 26 -35 26 -37 23 -38 22 -39 20 -40 18 -41 16 -42 14 -43 12 -44 10 -44 8 -45 6 -46 4 -46 1 0 0zm-901 -902l846 0 0 0 0 3 1 3 0 3 0 3 1 2 1 3 1 2 0 2 1 3 2 2 1 2 1 3 2 2 2 2 1 2 2 2 2 2 2 2 3 1 2 2 2 1 2 2 3 1 2 1 2 1 3 1 2 0 3 1 2 0 3 1 3 0 3 0 0 847 -46 -1 -45 -4 -45 -6 -45 -8 -44 -10 -43 -12 -42 -14 -41 -16 -40 -18 -39 -20 -38 -22 -36 -23 -36 -26 -33 -26 -33 -29 -31 -29 -30 -32 -28 -32 -27 -34 -25 -36 -24 -36 -21 -38 -20 -39 -18 -40 -17 -41 -14 -42 -12 -43 -10 -44 -8 -44 -6 -45 -3 -46 -1 -46 0 0zm901 -902l0 847 0 0 -3 0 -3 0 -3 0 -2 1 -3 0 -2 1 -3 1 -2 1 -2 1 -3 1 -2 2 -2 1 -2 1 -3 2 -2 2 -2 2 -2 2 -1 2 -2 2 -2 2 -1 3 -1 2 -2 2 -1 2 0 3 -1 2 -1 3 -1 2 0 3 0 3 -1 3 0 3 -846 0 1 -46 3 -46 6 -45 8 -44 10 -44 12 -43 14 -42 17 -41 18 -40 20 -39 21 -38 24 -37 25 -35 27 -34 28 -33 30 -31 31 -30 33 -28 33 -26 36 -26 36 -23 38 -22 39 -20 40 -18 41 -16 42 -14 43 -12 44 -11 45 -8 45 -5 45 -4 46 -1 0 0z"/>
   </g>
   <g>
    <path class="fil1" d="M11046 12503l-847 0 0 0 0 -3 0 -3 0 -3 -1 -3 -1 -2 0 -3 -1 -2 -1 -3 -1 -2 -1 -2 -2 -2 -1 -3 -2 -2 -1 -2 -2 -2 -2 -2 -2 -2 -2 -2 -2 -2 -2 -1 -3 -1 -2 -2 -2 -1 -2 -1 -3 -1 -2 -1 -3 -1 -2 0 -3 -1 -3 0 -3 0 -3 0 0 -847 46 1 46 4 45 5 44 8 44 11 43 12 42 14 41 16 40 18 39 20 38 22 37 23 35 26 34 26 33 28 31 30 29 31 29 33 27 34 25 35 23 37 22 38 20 39 18 40 16 41 14 42 12 43 11 44 7 44 6 45 4 46 1 46 0 0zm-902 902l0 -847 0 0 3 0 3 0 3 -1 3 0 2 -1 3 0 2 -1 3 -1 2 -1 2 -1 2 -2 3 -1 2 -2 2 -1 2 -2 2 -2 2 -2 2 -2 1 -2 2 -2 1 -3 2 -2 1 -2 1 -3 1 -2 1 -2 0 -3 1 -2 1 -3 0 -3 0 -3 0 -3 847 0 -1 46 -4 46 -6 45 -7 44 -11 44 -12 43 -14 42 -16 41 -18 40 -20 39 -22 38 -23 36 -25 36 -27 34 -28 32 -30 32 -32 29 -32 29 -34 26 -35 26 -37 23 -38 22 -39 20 -40 18 -41 16 -42 14 -43 12 -44 10 -44 8 -45 6 -46 4 -46 1 0 0zm-902 -902l847 0 0 0 0 3 0 3 1 3 0 3 1 2 1 3 0 2 1 2 1 3 2 2 1 2 1 3 2 2 2 2 1 2 2 2 2 2 2 2 3 1 2 2 2 1 2 2 3 1 2 1 2 1 3 1 2 0 3 1 2 0 3 1 3 0 3 0 0 847 -46 -1 -45 -4 -46 -6 -44 -8 -44 -10 -43 -12 -42 -14 -41 -16 -40 -18 -39 -20 -38 -22 -36 -23 -36 -26 -34 -26 -32 -29 -31 -29 -30 -32 -29 -32 -26 -34 -25 -36 -24 -36 -21 -38 -20 -39 -19 -40 -16 -41 -14 -42 -12 -43 -10 -44 -8 -44 -6 -45 -3 -46 -2 -46 0 0zm902 -902l0 847 0 0 -3 0 -3 0 -3 0 -2 1 -3 0 -2 1 -3 1 -2 1 -2 1 -3 1 -2 2 -2 1 -2 1 -3 2 -2 2 -2 2 -2 2 -1 2 -2 2 -2 2 -1 3 -1 2 -2 2 -1 2 -1 3 0 2 -1 3 -1 2 0 3 -1 3 0 3 0 3 -847 0 2 -46 3 -46 6 -45 8 -44 10 -44 12 -43 14 -42 16 -41 19 -40 20 -39 21 -38 24 -37 25 -35 26 -34 29 -33 30 -31 31 -30 32 -28 34 -26 36 -26 36 -23 38 -22 39 -20 40 -18 41 -16 42 -14 43 -12 44 -11 44 -8 46 -5 45 -4 46 -1 0 0z"/>
   </g>
   <g>
    <path class="fil2" d="M5108 8454c-234,0 -424,-190 -424,-424 1,-233 190,-423 424,-423l0 847zm6624 4l-6624 -4 0 -847 6625 4 -1 847zm1 -847c234,0 423,190 423,423 0,234 -190,424 -424,424l1 -847z"/>
   </g>
  </g>
 </g>
</svg>
