<?xml version="1.0" encoding="UTF-8"?>
<!DOCTYPE svg PUBLIC "-//W3C//DTD SVG 1.1//EN" "http://www.w3.org/Graphics/SVG/1.1/DTD/svg11.dtd">
<!-- Creator: CorelDRAW X7 -->
<svg xmlns="http://www.w3.org/2000/svg" xml:space="preserve" width="154.263mm" height="154.263mm" version="1.1" style="shape-rendering:geometricPrecision; text-rendering:geometricPrecision; image-rendering:optimizeQuality; fill-rule:evenodd; clip-rule:evenodd"
viewBox="0 0 15426 15426"
 xmlns:xlink="http://www.w3.org/1999/xlink">
 <defs>
  <style type="text/css">
   <![CDATA[
    .fil0 {fill:none}
    .fil1 {fill:#9BA3B2}
   ]]>
  </style>
 </defs>
 <g id="Layer_x0020_1">
  <metadata id="CorelCorpID_0Corel-Layer"/>
  <rect class="fil0" width="15426" height="15426"/>
  <path class="fil1" d="M5337 5627c2313,-719 3310,2708 1140,3447 -2345,798 -3461,-2727 -1140,-3447zm-975 3864c-1365,584 -2740,1942 -2503,4087l701 11c178,-1222 116,-1727 858,-2536 1477,-1612 3711,-1367 4874,-83 692,765 774,1318 891,2603l699 18c201,-1245 -503,-2801 -1399,-3462 -360,-265 -672,-400 -1056,-663 71,-136 -3,-21 105,-147 611,-715 1276,-1443 744,-2886 -794,-2155 -4028,-2272 -4836,88 -193,562 -169,1191 23,1724 157,435 404,765 720,1063l179 183z"/>
  <path class="fil1" d="M4762 4034l747 -142 18 -1294 7275 0 31 4371c-1891,0 -859,176 -2175,1083l-5 -1059 -1470 -22 -13 751 727 19 0 2134c352,-229 1129,-1095 1471,-1437 1044,-1044 481,-572 2209,-716l17 -5868 -8825 -19 -7 2199z"/>
 </g>
</svg>
