<?xml version="1.0" encoding="UTF-8"?>
<!DOCTYPE svg PUBLIC "-//W3C//DTD SVG 1.1//EN" "http://www.w3.org/Graphics/SVG/1.1/DTD/svg11.dtd">
<!-- Creator: CorelDRAW X7 -->
<svg xmlns="http://www.w3.org/2000/svg" xml:space="preserve" width="154.263mm" height="154.263mm" version="1.1" style="shape-rendering:geometricPrecision; text-rendering:geometricPrecision; image-rendering:optimizeQuality; fill-rule:evenodd; clip-rule:evenodd"
viewBox="0 0 15426 15426"
 xmlns:xlink="http://www.w3.org/1999/xlink">
 <defs>
  <style type="text/css">
   <![CDATA[
    .fil0 {fill:#808083;fill-rule:nonzero}
   ]]>
  </style>
 </defs>
 <g id="Layer_x0020_1">
  <metadata id="CorelCorpID_0Corel-Layer"/>
  <path class="fil0" d="M1925 12975l11576 0c146,0 263,-117 263,-263l0 -9998c0,-145 -117,-263 -263,-263l-11576 0c-146,0 -263,118 -263,263l0 9998c0,146 117,263 263,263zm263 -526l0 0 0 -2441c12,-8 25,-12 35,-23l2693 -2692c136,-137 374,-136 511,0l3957 3958c52,51 119,77 186,77 65,0 131,-25 182,-73l2034 -1932c68,-69 159,-106 256,-106 97,0 187,37 244,94l952 1082 0 2056 -11050 0zm11050 -9472l0 0 0 6620 -569 -646c-167,-168 -390,-260 -627,-260 0,0 0,0 0,0 -237,0 -460,92 -623,255l-1844 1751 -3776 -3776c-336,-336 -920,-335 -1255,0l-2356 2355 0 -6299 11050 0z"/>
 </g>
</svg>
