<?xml version="1.0" encoding="UTF-8"?>
<!DOCTYPE svg PUBLIC "-//W3C//DTD SVG 1.1//EN" "http://www.w3.org/Graphics/SVG/1.1/DTD/svg11.dtd">
<!-- Creator: CorelDRAW X7 -->
<svg xmlns="http://www.w3.org/2000/svg" xml:space="preserve" width="154.263mm" height="154.263mm" version="1.1" style="shape-rendering:geometricPrecision; text-rendering:geometricPrecision; image-rendering:optimizeQuality; fill-rule:evenodd; clip-rule:evenodd"
viewBox="0 0 15426 15426"
 xmlns:xlink="http://www.w3.org/1999/xlink">
 <defs>
  <style type="text/css">
   <![CDATA[
    .fil0 {fill:none}
    .fil1 {fill:#313C4E;fill-rule:nonzero;fill-opacity:0.850980}
   ]]>
  </style>
 </defs>
 <g id="Layer_x0020_1">
  <metadata id="CorelCorpID_0Corel-Layer"/>
  <rect class="fil0" width="15426" height="15426"/>
  <g>
   <path class="fil1" d="M12859 2251l1237 3094 -1006 403 -1238 -3095 503 -743 504 341zm-1007 402c-111,-278 24,-593 302,-704 278,-111 593,24 705,302l-1007 402zm-8781 -743l9284 0 0 1084 -9284 0 -503 -743 503 -341zm0 1084c-299,0 -542,-243 -542,-542 0,-299 243,-542 542,-542l0 1084zm-1741 2351l1238 -3094 1006 402 -1238 3095 -1045 -201 39 -202zm1006 403c-111,278 -426,413 -704,302 -278,-111 -413,-427 -302,-705l1006 403zm-1045 1656l0 -1857 1084 0 0 1857 -542 541 -542 -541zm1084 0c0,299 -243,541 -542,541 -299,0 -542,-242 -542,-541l1084 0zm11218 541l-11760 0 0 -1083 11760 0 542 542 -542 541zm0 -1083c299,0 542,242 542,542 0,299 -243,541 -542,541l0 -1083zm542 -1315l0 1857 -1084 0 0 -1857 1045 -202 39 202zm-1084 0c0,-300 243,-542 542,-542 299,0 542,242 542,542l-1084 0zm-9980 1569l9284 0 0 1083 -9284 0 -542 -541 542 -542zm0 1083c-299,0 -542,-242 -542,-541 0,-300 243,-542 542,-542l0 1083zm-542 4775l0 -5316 1084 0 0 5316 -542 542 -542 -542zm1084 0c0,300 -243,542 -542,542 -299,0 -542,-242 -542,-542l1084 0zm3182 542l-3724 0 0 -1084 3724 0 542 541 -542 543zm0 -1084c299,0 542,243 542,542 0,300 -243,542 -542,542l0 -1084zm532 -3173l10 3714 -1084 3 -10 -3714 542 -543 542 540zm-1084 3c-1,-299 241,-543 540,-543 299,-1 543,241 544,540l-1084 3zm2399 540l-1857 0 0 -1083 1857 0 541 543 -541 540zm0 -1083c299,0 541,242 541,541 0,300 -242,542 -541,542l0 -1083zm-555 4254l13 -3714 1083 3 -12 3714 -542 540 -542 -543zm1084 3c-1,299 -244,541 -544,540 -299,-1 -541,-244 -540,-543l1084 3zm3184 540l-3726 0 0 -1084 3726 0 542 542 -542 542zm0 -1084c300,0 542,243 542,542 0,300 -242,542 -542,542l0 -1084zm542 -4774l0 5316 -1083 0 0 -5316 541 -542 542 542zm-1083 0c0,-300 242,-542 541,-542 300,0 542,242 542,542l-1083 0z"/>
  </g>
 </g>
</svg>
