<?xml version="1.0" encoding="UTF-8"?>
<!DOCTYPE svg PUBLIC "-//W3C//DTD SVG 1.1//EN" "http://www.w3.org/Graphics/SVG/1.1/DTD/svg11.dtd">
<!-- Creator: CorelDRAW X7 -->
<svg xmlns="http://www.w3.org/2000/svg" xml:space="preserve" width="154.263mm" height="154.263mm" version="1.1" style="shape-rendering:geometricPrecision; text-rendering:geometricPrecision; image-rendering:optimizeQuality; fill-rule:evenodd; clip-rule:evenodd"
viewBox="0 0 15426 15426"
 xmlns:xlink="http://www.w3.org/1999/xlink">
 <defs>
  <style type="text/css">
   <![CDATA[
    .fil0 {fill:none}
    .fil1 {fill:#313C4E;fill-opacity:0.850980}
   ]]>
  </style>
 </defs>
 <g id="Layer_x0020_1">
  <metadata id="CorelCorpID_0Corel-Layer"/>
  <rect class="fil0" width="15426" height="15426"/>
  <path class="fil1" d="M7713 2663c606,0 1098,492 1098,1098 0,606 -492,1098 -1098,1098 -606,0 -1098,-492 -1098,-1098 0,-606 492,-1098 1098,-1098zm0 3952c606,0 1098,492 1098,1098 0,606 -492,1098 -1098,1098 -606,0 -1098,-492 -1098,-1098 0,-606 492,-1098 1098,-1098zm0 3952c606,0 1098,492 1098,1098 0,607 -492,1098 -1098,1098 -606,0 -1098,-491 -1098,-1098 0,-606 492,-1098 1098,-1098z"/>
 </g>
</svg>
