<?xml version="1.0" encoding="UTF-8"?>
<!DOCTYPE svg PUBLIC "-//W3C//DTD SVG 1.1//EN" "http://www.w3.org/Graphics/SVG/1.1/DTD/svg11.dtd">
<!-- Creator: CorelDRAW X7 -->
<svg xmlns="http://www.w3.org/2000/svg" xml:space="preserve" width="154.263mm" height="154.263mm" version="1.1" style="shape-rendering:geometricPrecision; text-rendering:geometricPrecision; image-rendering:optimizeQuality; fill-rule:evenodd; clip-rule:evenodd"
viewBox="0 0 15426 15426"
 xmlns:xlink="http://www.w3.org/1999/xlink"
 enable-background="new 0 0 32 32">
 <defs>
  <style type="text/css">
   <![CDATA[
    .fil0 {fill:#828282}
   ]]>
  </style>
 </defs>
 <g id="Layer_x0020_1">
  <metadata id="CorelCorpID_0Corel-Layer"/>
  <g id="_1916934292368">
   <path class="fil0" d="M11229 3760l1602 0c91,0 165,-74 165,-165 0,-91 -74,-164 -165,-164l-1975 0c-90,0 -164,73 -164,164l0 1975c0,91 74,164 165,164 90,0 164,-73 164,-164l0 -1553 201 202c933,932 1446,2172 1446,3490 0,1319 -513,2558 -1446,3491 -1384,1384 -3457,1821 -5282,1111 -85,-34 -180,8 -213,93 -33,85 8,180 93,213 620,241 1267,358 1908,358 1373,0 2721,-536 3727,-1543 994,-994 1542,-2317 1542,-3723 0,-1406 -548,-2729 -1542,-3723l-226 -226z"/>
   <path class="fil0" d="M4603 9684c-91,0 -164,74 -164,164l0 1593 -235 -234c-932,-933 -1446,-2173 -1446,-3491 0,-1318 514,-2558 1446,-3491 1361,-1361 3407,-1808 5212,-1137 84,31 180,-12 211,-97 32,-86 -11,-180 -97,-212 -1925,-715 -4107,-239 -5559,1213 -994,995 -1542,2317 -1542,3724 0,1406 548,2729 1542,3723l220 219 -1562 0c-91,0 -165,74 -165,165 0,91 74,165 165,165l1927 0c13,3 124,-9 156,-41 1,-1 2,-3 3,-4 32,-30 53,-72 53,-120l0 -1975c0,-90 -74,-164 -165,-164z"/>
  </g>
 </g>
</svg>
