<?xml version="1.0" encoding="UTF-8"?>
<!DOCTYPE svg PUBLIC "-//W3C//DTD SVG 1.1//EN" "http://www.w3.org/Graphics/SVG/1.1/DTD/svg11.dtd">
<!-- Creator: CorelDRAW X7 -->
<svg xmlns="http://www.w3.org/2000/svg" xml:space="preserve" width="154.263mm" height="154.263mm" version="1.1" style="shape-rendering:geometricPrecision; text-rendering:geometricPrecision; image-rendering:optimizeQuality; fill-rule:evenodd; clip-rule:evenodd"
viewBox="0 0 15426 15426"
 xmlns:xlink="http://www.w3.org/1999/xlink">
 <defs>
  <style type="text/css">
   <![CDATA[
    .fil0 {fill:none}
    .fil1 {fill:#313C4E;fill-rule:nonzero;fill-opacity:0.850980}
   ]]>
  </style>
 </defs>
 <g id="Layer_x0020_1">
  <metadata id="CorelCorpID_0Corel-Layer"/>
  <rect class="fil0" width="15426" height="15426"/>
  <g>
   <path class="fil1" d="M9622 10108c-202,-221 -186,-564 35,-766 221,-202 563,-186 765,35l-800 731zm2954 3233l-2954 -3233 800 -731 2954 3233 -800 731zm800 -731c201,221 186,563 -35,765 -221,202 -564,187 -765,-34l800 -731zm-1673 -5804l-1084 0 0 0 -5 -197 -15 -194 -24 -190 -34 -188 -42 -184 -52 -181 -59 -177 -69 -173 -76 -169 -84 -164 -92 -160 -99 -155 -106 -149 -114 -144 -120 -139 -126 -132 -132 -127 -139 -120 -144 -113 -150 -106 -154 -99 -160 -92 -164 -84 -169 -77 -173 -68 -177 -60 -181 -51 -184 -43 -188 -33 -191 -24 -194 -15 -196 -5 0 -1084 251 7 249 18 245 32 241 43 237 54 233 66 227 77 223 88 217 98 211 108 205 118 199 128 192 136 185 146 177 153 170 162 162 170 154 178 146 185 136 192 127 198 118 206 108 211 99 217 87 222 77 228 66 233 55 237 43 241 31 245 19 249 7 251 0 0zm-4897 4897l0 -1084 0 0 196 -5 194 -14 191 -25 188 -33 184 -43 181 -51 177 -60 173 -68 169 -76 164 -85 160 -91 154 -100 150 -106 144 -113 139 -120 132 -126 126 -133 120 -138 114 -145 106 -149 99 -155 92 -159 84 -165 76 -169 69 -173 59 -177 52 -180 42 -185 34 -187 24 -191 15 -194 5 -197 1084 0 -7 252 -19 248 -31 245 -43 241 -55 238 -66 232 -77 228 -87 222 -99 217 -108 212 -118 205 -127 198 -136 192 -146 185 -154 178 -162 170 -170 162 -177 154 -185 145 -192 137 -199 127 -205 118 -211 108 -217 98 -223 88 -227 77 -233 66 -237 55 -241 43 -245 31 -249 19 -251 6 0 0zm-4897 -4897l1084 0 0 0 5 197 14 194 25 191 33 187 43 185 51 180 60 177 68 173 76 169 84 165 92 159 99 155 107 149 113 145 120 138 126 133 133 126 138 120 144 113 150 106 155 100 159 91 165 85 168 76 173 68 177 60 181 51 184 43 188 33 191 25 194 14 197 5 0 1084 -252 -6 -248 -19 -245 -31 -242 -43 -237 -55 -232 -66 -228 -77 -223 -88 -217 -98 -211 -108 -205 -118 -199 -127 -192 -137 -185 -145 -177 -154 -170 -162 -162 -170 -154 -178 -145 -185 -137 -192 -127 -198 -118 -205 -108 -212 -98 -217 -88 -222 -77 -228 -66 -232 -55 -238 -43 -241 -31 -245 -19 -248 -6 -252 0 0zm4897 -4897l0 1084 0 0 -197 5 -194 15 -191 24 -188 33 -184 43 -181 51 -177 60 -173 68 -168 77 -165 84 -159 92 -155 99 -150 106 -144 113 -138 120 -133 127 -126 132 -120 139 -113 144 -107 149 -99 155 -92 160 -84 164 -76 169 -68 173 -60 177 -51 181 -43 184 -33 188 -25 190 -14 194 -5 197 -1084 0 6 -251 19 -249 31 -245 43 -241 55 -237 66 -233 77 -228 88 -222 98 -217 108 -211 118 -206 127 -198 137 -192 145 -185 154 -178 162 -170 170 -162 177 -153 185 -146 192 -136 199 -128 205 -118 211 -108 217 -98 223 -88 228 -77 232 -66 237 -54 242 -43 245 -32 248 -18 252 -7 0 0z"/>
  </g>
 </g>
</svg>
