<?xml version="1.0" encoding="UTF-8"?>
<!DOCTYPE svg PUBLIC "-//W3C//DTD SVG 1.1//EN" "http://www.w3.org/Graphics/SVG/1.1/DTD/svg11.dtd">
<!-- Creator: CorelDRAW X7 -->
<svg xmlns="http://www.w3.org/2000/svg" xml:space="preserve" width="154.263mm" height="154.263mm" version="1.1" style="shape-rendering:geometricPrecision; text-rendering:geometricPrecision; image-rendering:optimizeQuality; fill-rule:evenodd; clip-rule:evenodd"
viewBox="0 0 15426 15426"
 xmlns:xlink="http://www.w3.org/1999/xlink">
 <defs>
  <style type="text/css">
   <![CDATA[
    .fil0 {fill:none}
    .fil1 {fill:white;fill-rule:nonzero}
   ]]>
  </style>
 </defs>
 <g id="Layer_x0020_1">
  <metadata id="CorelCorpID_0Corel-Layer"/>
  <rect class="fil0" width="15426" height="15426"/>
  <g>
   <path class="fil1" d="M9453 10262c-287,-314 -265,-801 50,-1088 314,-287 801,-265 1088,49l-1138 1039zm2954 3233l-2954 -3233 1138 -1039 2953 3233 -1137 1039zm1137 -1039c287,314 265,801 -49,1088 -314,287 -801,265 -1088,-49l1137 -1039zm-1613 -5650l-1541 0 0 0 -4 -185 -14 -183 -23 -179 -32 -176 -40 -174 -48 -169 -56 -167 -64 -162 -72 -159 -79 -154 -86 -150 -93 -146 -100 -140 -107 -136 -113 -130 -119 -125 -124 -118 -130 -113 -136 -107 -140 -100 -146 -93 -150 -86 -154 -79 -159 -72 -163 -64 -166 -56 -170 -49 -173 -40 -176 -31 -180 -23 -182 -14 -185 -4 0 -1541 263 6 260 20 256 33 253 45 248 57 244 69 238 81 233 92 227 102 221 114 215 123 208 133 201 143 193 152 186 161 178 170 170 178 161 185 152 194 142 201 134 208 123 214 113 222 103 227 92 233 81 238 69 244 57 248 45 253 33 256 19 260 7 263 0 0zm-5125 5126l0 -1541 0 0 185 -5 182 -14 180 -23 176 -31 173 -40 170 -48 166 -57 163 -64 159 -71 154 -79 150 -87 146 -93 140 -100 136 -106 130 -113 124 -119 119 -125 113 -130 107 -135 100 -141 93 -145 86 -151 79 -154 72 -159 64 -162 56 -166 48 -170 40 -173 32 -177 23 -179 14 -183 4 -185 1541 0 -7 263 -19 260 -33 257 -45 252 -57 248 -69 244 -81 238 -92 233 -103 228 -113 221 -123 215 -134 207 -142 201 -152 194 -161 186 -170 178 -178 169 -186 161 -193 152 -201 143 -208 133 -215 124 -221 113 -227 103 -233 91 -238 81 -244 69 -248 58 -253 45 -256 32 -260 20 -263 7 0 0zm-5126 -5126l1541 0 0 0 5 185 14 183 23 179 31 177 40 173 48 170 56 166 65 162 71 159 79 154 87 151 93 145 100 141 106 135 113 130 119 125 125 119 130 113 135 106 141 100 145 93 150 87 155 79 158 71 163 64 166 57 170 48 173 40 177 31 179 23 182 14 186 5 0 1541 -263 -7 -260 -20 -257 -32 -252 -45 -249 -58 -243 -69 -239 -81 -233 -91 -227 -103 -221 -113 -215 -124 -208 -133 -201 -143 -193 -152 -186 -161 -178 -169 -169 -178 -161 -186 -152 -194 -143 -201 -133 -207 -124 -215 -113 -221 -103 -228 -92 -233 -80 -238 -69 -244 -58 -248 -45 -252 -32 -257 -20 -260 -7 -263 0 0zm5126 -5125l0 1541 0 0 -186 4 -182 14 -179 23 -177 31 -173 40 -170 49 -166 56 -163 64 -158 72 -155 79 -150 86 -145 93 -141 100 -135 107 -130 113 -125 118 -119 125 -113 130 -106 136 -100 140 -93 146 -87 150 -79 154 -71 159 -65 162 -56 167 -48 169 -40 174 -31 176 -23 179 -14 183 -5 185 -1541 0 7 -263 20 -260 32 -256 45 -253 58 -248 69 -244 80 -238 92 -233 103 -227 113 -222 124 -214 133 -208 143 -201 152 -194 161 -185 169 -178 178 -170 186 -161 193 -152 201 -143 208 -133 215 -123 221 -114 227 -102 233 -92 239 -81 243 -69 249 -57 252 -45 257 -33 260 -20 263 -6 0 0z"/>
  </g>
 </g>
</svg>
