<?xml version="1.0" encoding="UTF-8"?>
<!DOCTYPE svg PUBLIC "-//W3C//DTD SVG 1.1//EN" "http://www.w3.org/Graphics/SVG/1.1/DTD/svg11.dtd">
<!-- Creator: CorelDRAW X7 -->
<svg xmlns="http://www.w3.org/2000/svg" xml:space="preserve" width="154.263mm" height="154.263mm" version="1.1" style="shape-rendering:geometricPrecision; text-rendering:geometricPrecision; image-rendering:optimizeQuality; fill-rule:evenodd; clip-rule:evenodd"
viewBox="0 0 15426 15426"
 xmlns:xlink="http://www.w3.org/1999/xlink">
 <defs>
  <style type="text/css">
   <![CDATA[
    .fil0 {fill:none}
    .fil1 {fill:#EDF4F6}
   ]]>
  </style>
 </defs>
 <g id="Layer_x0020_1">
  <metadata id="CorelCorpID_0Corel-Layer"/>
  <rect class="fil0" width="15426" height="15426"/>
  <path class="fil1" d="M13648 3542c359,-535 706,-615 873,-1452 -858,281 -1354,867 -2160,376 -765,-467 -1171,-760 -2349,-579 -1677,258 -2568,1534 -2422,3532 -4049,-241 -5150,-2434 -6105,-3021 -627,1700 -424,2751 750,3888l-1126 -266c123,1941 968,2154 2183,2936l-1125 33c392,1130 1181,1836 2543,2070 -1251,1187 -2168,999 -4094,1216 831,398 985,657 2110,965 2833,777 5450,268 7635,-1483 2403,-1926 2862,-3661 3164,-6464 117,-1083 821,-830 1285,-2003l-1162 252z"/>
 </g>
</svg>
