<?xml version="1.0" encoding="UTF-8"?>
<!DOCTYPE svg PUBLIC "-//W3C//DTD SVG 1.1//EN" "http://www.w3.org/Graphics/SVG/1.1/DTD/svg11.dtd">
<!-- Creator: CorelDRAW X7 -->
<svg xmlns="http://www.w3.org/2000/svg" xml:space="preserve" width="154.263mm" height="154.263mm" version="1.1" style="shape-rendering:geometricPrecision; text-rendering:geometricPrecision; image-rendering:optimizeQuality; fill-rule:evenodd; clip-rule:evenodd"
viewBox="0 0 15426 15426"
 xmlns:xlink="http://www.w3.org/1999/xlink">
 <defs>
  <style type="text/css">
   <![CDATA[
    .fil0 {fill:#EDF4F6}
   ]]>
  </style>
 </defs>
 <g id="Layer_x0020_1">
  <metadata id="CorelCorpID_0Corel-Layer"/>
  <path class="fil0" d="M10541 6232c-1197,3867 -6547,2198 -5664,-1478 326,-1357 1780,-2499 3642,-2055 1281,306 2531,1892 2022,3533zm-4723 2468c-314,367 -1388,565 -2259,1854 -238,353 -540,797 -719,1343 -117,355 -510,1617 99,1679 903,93 -86,-1188 1502,-2964 1731,-1938 4864,-1797 6455,-136 1206,1260 914,2480 1363,3113l532 4c163,-1069 -416,-2417 -945,-3110 -967,-1267 -1552,-1254 -2304,-1758 3502,-2443 1550,-6867 -1805,-6892 -2591,-19 -4507,2714 -3373,5170 506,1097 654,983 1454,1697z"/>
 </g>
</svg>
